<?xml version="1.0" encoding="UTF-8" standalone="no"?>
<!DOCTYPE svg PUBLIC "-//W3C//DTD SVG 1.1//EN" "http://www.w3.org/Graphics/SVG/1.1/DTD/svg11.dtd">
<svg xmlns="http://www.w3.org/2000/svg" version="1.1" viewBox="0.00 0.00 1024.00 1024.00">
<g stroke-width="2.00" fill="none" stroke-linecap="butt">
<path stroke="#e0d9d4" vector-effect="non-scaling-stroke" d="
  M 381.20 681.34
  L 383.56 688.68"
/>
<path stroke="#746f6f" vector-effect="non-scaling-stroke" d="
  M 383.56 688.68
  Q 385.52 698.66 392.23 706.25
  C 409.31 725.59 433.53 731.39 457.84 722.57
  Q 495.28 708.98 512.24 671.30
  Q 512.55 670.60 512.85 671.31
  C 528.26 707.41 568.57 737.74 609.20 722.13
  Q 630.82 713.82 638.02 691.69"
/>
<path stroke="#e0d9d4" vector-effect="non-scaling-stroke" d="
  M 638.02 691.69
  L 644.06 680.30"
/>
<path stroke="#746f6f" vector-effect="non-scaling-stroke" d="
  M 644.06 680.30
  Q 655.07 671.85 663.23 660.28
  Q 663.57 659.80 662.98 659.85
  Q 650.91 660.97 638.99 658.82
  C 624.50 656.19 604.16 639.88 603.49 623.74
  Q 602.95 610.58 603.68 586.86
  Q 603.70 586.37 604.19 586.42
  C 653.74 591.58 704.46 560.95 707.60 507.80
  C 709.26 479.78 694.05 450.30 666.94 440.03
  Q 666.47 439.86 666.38 439.36
  C 653.73 368.23 597.32 315.83 525.50 309.34
  C 444.18 302.00 374.17 358.56 357.98 437.08
  Q 357.88 437.60 357.41 437.86
  Q 345.80 444.27 338.17 451.42
  C 302.61 484.74 312.06 540.29 349.02 567.76
  Q 380.13 590.88 420.18 585.72
  Q 420.72 585.65 420.72 586.19
  Q 420.81 602.87 420.73 619.55
  C 420.70 624.74 420.15 629.79 417.73 633.71
  Q 402.15 658.82 372.86 660.94
  C 369.01 661.21 364.47 660.51 360.46 660.34
  Q 358.77 660.27 359.92 661.51
  Q 370.02 672.47 381.20 681.34"
/>
<path stroke="#929498" vector-effect="non-scaling-stroke" d="
  M 644.06 680.30
  Q 631.50 690.47 615.01 693.28
  C 577.86 699.60 548.00 673.04 541.38 637.68
  Q 540.24 631.59 540.20 617.76
  Q 540.14 594.48 539.94 571.20
  C 539.92 569.45 540.60 566.89 539.97 564.56
  Q 539.84 564.05 539.43 563.72
  L 525.29 552.22
  Q 524.85 551.86 524.85 552.43
  Q 524.60 586.37 524.61 620.31
  Q 524.62 652.73 544.17 678.56
  C 564.43 705.35 600.32 714.20 630.20 698.25
  Q 634.31 696.05 638.02 691.69"
/>
<path stroke="#929498" vector-effect="non-scaling-stroke" d="
  M 383.56 688.68
  C 385.78 693.99 391.95 697.88 397.30 700.25
  C 428.11 713.86 462.96 702.67 482.38 675.36
  Q 494.01 659.00 497.73 639.65
  Q 499.04 632.87 499.02 621.28
  Q 498.99 586.90 499.00 552.49
  Q 499.00 551.78 498.51 552.29
  Q 492.18 558.88 484.26 563.47
  A 1.01 1.00 -15.0 0 0 483.75 564.34
  Q 483.74 591.54 483.77 618.77
  Q 483.78 631.92 482.46 638.68
  Q 478.86 657.06 466.99 671.78
  C 445.67 698.22 408.71 701.06 381.20 681.34"
/>
<path stroke="#929498" vector-effect="non-scaling-stroke" d="
  M 461.43 523.04
  C 453.95 532.52 441.61 538.55 430.11 541.24
  C 408.74 546.24 388.07 539.31 373.81 522.41
  C 360.87 507.06 355.28 487.21 355.11 467.45
  A 0.51 0.51 0.0 0 0 354.24 467.09
  C 326.75 494.07 337.73 535.86 369.45 553.84
  C 418.99 581.92 483.50 548.37 511.70 505.85
  Q 512.03 505.36 512.34 505.86
  C 533.27 538.86 571.74 561.89 610.75 564.23
  C 644.32 566.24 680.32 545.68 684.93 509.43
  C 686.91 493.83 681.75 478.37 669.84 468.22
  A 1.35 1.35 0.0 0 0 667.62 469.26
  C 667.76 491.53 660.86 512.99 644.06 528.03
  C 622.67 547.19 595.18 547.49 571.91 531.55
  Q 565.65 527.27 559.92 522.54
  A 0.22 0.22 0.0 0 1 560.13 522.17
  C 602.28 536.00 642.52 517.35 645.30 469.69
  C 647.60 430.12 629.77 391.91 600.70 365.32
  C 550.92 319.79 473.15 321.51 423.44 365.45
  Q 381.92 402.15 378.61 459.01
  Q 377.89 471.35 379.79 481.47
  C 387.01 520.03 427.42 535.08 461.29 522.84
  Q 461.71 522.69 461.43 523.04"
/>
<path stroke="#929498" vector-effect="non-scaling-stroke" d="
  M 443.71 621.98
  C 443.65 641.78 434.31 656.36 420.32 669.50
  Q 419.97 669.83 420.45 669.79
  C 444.54 667.99 458.74 647.28 458.77 624.24
  Q 458.80 601.02 458.72 577.70
  Q 458.72 577.02 458.11 577.32
  Q 451.49 580.50 444.31 582.05
  A 0.72 0.71 84.0 0 0 443.75 582.75
  Q 443.77 602.41 443.71 621.98"
/>
<path stroke="#929498" vector-effect="non-scaling-stroke" d="
  M 564.84 622.68
  C 565.56 644.62 578.22 670.71 604.03 669.47
  Q 604.77 669.44 604.21 668.95
  Q 596.14 662.00 593.79 659.45
  C 583.30 648.02 578.87 632.56 579.19 616.74
  Q 579.54 599.73 579.51 583.45
  Q 579.51 582.45 578.57 582.13
  L 565.43 577.59
  Q 564.95 577.43 564.95 577.93
  Q 564.42 609.57 564.84 622.68"
/>
<path stroke="#929498" vector-effect="non-scaling-stroke" d="
  M 407.19 501.56
  C 437.09 529.24 479.86 502.06 475.42 465.16
  C 474.02 453.50 468.38 443.54 458.80 436.94
  C 433.41 419.46 397.07 435.93 393.68 466.61
  C 392.11 480.86 396.75 491.91 407.19 501.56"
/>
<path stroke="#929498" vector-effect="non-scaling-stroke" d="
  M 607.7588 508.2624
  A 41.54 41.02 63.0 0 0 625.4491 452.6273
  A 41.54 41.02 63.0 0 0 570.0412 434.2376
  A 41.54 41.02 63.0 0 0 552.3509 489.8727
  A 41.54 41.02 63.0 0 0 607.7588 508.2624"
/>
<path stroke="#929498" vector-effect="non-scaling-stroke" d="
  M 517.44 481.96
  Q 530.05 482.21 541.23 487.86
  A 0.11 0.10 -3.2 0 0 541.37 487.71
  C 532.87 475.70 520.66 468.63 505.78 471.57
  Q 492.55 474.18 484.84 486.37
  Q 484.65 486.68 484.99 486.57
  Q 500.85 481.63 517.44 481.96"
/>
<path stroke="#929498" vector-effect="non-scaling-stroke" d="
  M 448.7846 462.9161
  A 10.97 10.34 3.9 0 0 438.5433 451.8539
  A 10.97 10.34 3.9 0 0 426.8954 461.4239
  A 10.97 10.34 3.9 0 0 437.1367 472.4861
  A 10.97 10.34 3.9 0 0 448.7846 462.9161"
/>
<path stroke="#929498" vector-effect="non-scaling-stroke" d="
  M 596.58 462.57
  A 10.79 10.79 0.0 0 0 585.79 451.78
  A 10.79 10.79 0.0 0 0 575.00 462.57
  A 10.79 10.79 0.0 0 0 585.79 473.36
  A 10.79 10.79 0.0 0 0 596.58 462.57"
/>
</g>
<path fill="#c2b4ab" d="
  M 0.00 0.00
  L 1024.00 0.00
  L 1024.00 1024.00
  L 0.00 1024.00
  L 0.00 0.00
  Z
  M 381.20 681.34
  L 383.56 688.68
  Q 385.52 698.66 392.23 706.25
  C 409.31 725.59 433.53 731.39 457.84 722.57
  Q 495.28 708.98 512.24 671.30
  Q 512.55 670.60 512.85 671.31
  C 528.26 707.41 568.57 737.74 609.20 722.13
  Q 630.82 713.82 638.02 691.69
  L 644.06 680.30
  Q 655.07 671.85 663.23 660.28
  Q 663.57 659.80 662.98 659.85
  Q 650.91 660.97 638.99 658.82
  C 624.50 656.19 604.16 639.88 603.49 623.74
  Q 602.95 610.58 603.68 586.86
  Q 603.70 586.37 604.19 586.42
  C 653.74 591.58 704.46 560.95 707.60 507.80
  C 709.26 479.78 694.05 450.30 666.94 440.03
  Q 666.47 439.86 666.38 439.36
  C 653.73 368.23 597.32 315.83 525.50 309.34
  C 444.18 302.00 374.17 358.56 357.98 437.08
  Q 357.88 437.60 357.41 437.86
  Q 345.80 444.27 338.17 451.42
  C 302.61 484.74 312.06 540.29 349.02 567.76
  Q 380.13 590.88 420.18 585.72
  Q 420.72 585.65 420.72 586.19
  Q 420.81 602.87 420.73 619.55
  C 420.70 624.74 420.15 629.79 417.73 633.71
  Q 402.15 658.82 372.86 660.94
  C 369.01 661.21 364.47 660.51 360.46 660.34
  Q 358.77 660.27 359.92 661.51
  Q 370.02 672.47 381.20 681.34
  Z"
/>
<path fill="#262a33" d="
  M 644.06 680.30
  Q 631.50 690.47 615.01 693.28
  C 577.86 699.60 548.00 673.04 541.38 637.68
  Q 540.24 631.59 540.20 617.76
  Q 540.14 594.48 539.94 571.20
  C 539.92 569.45 540.60 566.89 539.97 564.56
  Q 539.84 564.05 539.43 563.72
  L 525.29 552.22
  Q 524.85 551.86 524.85 552.43
  Q 524.60 586.37 524.61 620.31
  Q 524.62 652.73 544.17 678.56
  C 564.43 705.35 600.32 714.20 630.20 698.25
  Q 634.31 696.05 638.02 691.69
  Q 630.82 713.82 609.20 722.13
  C 568.57 737.74 528.26 707.41 512.85 671.31
  Q 512.55 670.60 512.24 671.30
  Q 495.28 708.98 457.84 722.57
  C 433.53 731.39 409.31 725.59 392.23 706.25
  Q 385.52 698.66 383.56 688.68
  C 385.78 693.99 391.95 697.88 397.30 700.25
  C 428.11 713.86 462.96 702.67 482.38 675.36
  Q 494.01 659.00 497.73 639.65
  Q 499.04 632.87 499.02 621.28
  Q 498.99 586.90 499.00 552.49
  Q 499.00 551.78 498.51 552.29
  Q 492.18 558.88 484.26 563.47
  A 1.01 1.00 -15.0 0 0 483.75 564.34
  Q 483.74 591.54 483.77 618.77
  Q 483.78 631.92 482.46 638.68
  Q 478.86 657.06 466.99 671.78
  C 445.67 698.22 408.71 701.06 381.20 681.34
  Q 370.02 672.47 359.92 661.51
  Q 358.77 660.27 360.46 660.34
  C 364.47 660.51 369.01 661.21 372.86 660.94
  Q 402.15 658.82 417.73 633.71
  C 420.15 629.79 420.70 624.74 420.73 619.55
  Q 420.81 602.87 420.72 586.19
  Q 420.72 585.65 420.18 585.72
  Q 380.13 590.88 349.02 567.76
  C 312.06 540.29 302.61 484.74 338.17 451.42
  Q 345.80 444.27 357.41 437.86
  Q 357.88 437.60 357.98 437.08
  C 374.17 358.56 444.18 302.00 525.50 309.34
  C 597.32 315.83 653.73 368.23 666.38 439.36
  Q 666.47 439.86 666.94 440.03
  C 694.05 450.30 709.26 479.78 707.60 507.80
  C 704.46 560.95 653.74 591.58 604.19 586.42
  Q 603.70 586.37 603.68 586.86
  Q 602.95 610.58 603.49 623.74
  C 604.16 639.88 624.50 656.19 638.99 658.82
  Q 650.91 660.97 662.98 659.85
  Q 663.57 659.80 663.23 660.28
  Q 655.07 671.85 644.06 680.30
  Z
  M 461.43 523.04
  C 453.95 532.52 441.61 538.55 430.11 541.24
  C 408.74 546.24 388.07 539.31 373.81 522.41
  C 360.87 507.06 355.28 487.21 355.11 467.45
  A 0.51 0.51 0.0 0 0 354.24 467.09
  C 326.75 494.07 337.73 535.86 369.45 553.84
  C 418.99 581.92 483.50 548.37 511.70 505.85
  Q 512.03 505.36 512.34 505.86
  C 533.27 538.86 571.74 561.89 610.75 564.23
  C 644.32 566.24 680.32 545.68 684.93 509.43
  C 686.91 493.83 681.75 478.37 669.84 468.22
  A 1.35 1.35 0.0 0 0 667.62 469.26
  C 667.76 491.53 660.86 512.99 644.06 528.03
  C 622.67 547.19 595.18 547.49 571.91 531.55
  Q 565.65 527.27 559.92 522.54
  A 0.22 0.22 0.0 0 1 560.13 522.17
  C 602.28 536.00 642.52 517.35 645.30 469.69
  C 647.60 430.12 629.77 391.91 600.70 365.32
  C 550.92 319.79 473.15 321.51 423.44 365.45
  Q 381.92 402.15 378.61 459.01
  Q 377.89 471.35 379.79 481.47
  C 387.01 520.03 427.42 535.08 461.29 522.84
  Q 461.71 522.69 461.43 523.04
  Z
  M 443.71 621.98
  C 443.65 641.78 434.31 656.36 420.32 669.50
  Q 419.97 669.83 420.45 669.79
  C 444.54 667.99 458.74 647.28 458.77 624.24
  Q 458.80 601.02 458.72 577.70
  Q 458.72 577.02 458.11 577.32
  Q 451.49 580.50 444.31 582.05
  A 0.72 0.71 84.0 0 0 443.75 582.75
  Q 443.77 602.41 443.71 621.98
  Z
  M 564.84 622.68
  C 565.56 644.62 578.22 670.71 604.03 669.47
  Q 604.77 669.44 604.21 668.95
  Q 596.14 662.00 593.79 659.45
  C 583.30 648.02 578.87 632.56 579.19 616.74
  Q 579.54 599.73 579.51 583.45
  Q 579.51 582.45 578.57 582.13
  L 565.43 577.59
  Q 564.95 577.43 564.95 577.93
  Q 564.42 609.57 564.84 622.68
  Z"
/>
<path fill="#fdfdfd" d="
  M 461.29 522.84
  C 427.42 535.08 387.01 520.03 379.79 481.47
  Q 377.89 471.35 378.61 459.01
  Q 381.92 402.15 423.44 365.45
  C 473.15 321.51 550.92 319.79 600.70 365.32
  C 629.77 391.91 647.60 430.12 645.30 469.69
  C 642.52 517.35 602.28 536.00 560.13 522.17
  A 0.22 0.22 0.0 0 0 559.92 522.54
  Q 565.65 527.27 571.91 531.55
  C 595.18 547.49 622.67 547.19 644.06 528.03
  C 660.86 512.99 667.76 491.53 667.62 469.26
  A 1.35 1.35 0.0 0 1 669.84 468.22
  C 681.75 478.37 686.91 493.83 684.93 509.43
  C 680.32 545.68 644.32 566.24 610.75 564.23
  C 571.74 561.89 533.27 538.86 512.34 505.86
  Q 512.03 505.36 511.70 505.85
  C 483.50 548.37 418.99 581.92 369.45 553.84
  C 337.73 535.86 326.75 494.07 354.24 467.09
  A 0.51 0.51 0.0 0 1 355.11 467.45
  C 355.28 487.21 360.87 507.06 373.81 522.41
  C 388.07 539.31 408.74 546.24 430.11 541.24
  C 441.61 538.55 453.95 532.52 461.43 523.04
  Q 461.71 522.69 461.29 522.84
  Z
  M 407.19 501.56
  C 437.09 529.24 479.86 502.06 475.42 465.16
  C 474.02 453.50 468.38 443.54 458.80 436.94
  C 433.41 419.46 397.07 435.93 393.68 466.61
  C 392.11 480.86 396.75 491.91 407.19 501.56
  Z
  M 607.7588 508.2624
  A 41.54 41.02 63.0 0 0 625.4491 452.6273
  A 41.54 41.02 63.0 0 0 570.0412 434.2376
  A 41.54 41.02 63.0 0 0 552.3509 489.8727
  A 41.54 41.02 63.0 0 0 607.7588 508.2624
  Z
  M 517.44 481.96
  Q 530.05 482.21 541.23 487.86
  A 0.11 0.10 -3.2 0 0 541.37 487.71
  C 532.87 475.70 520.66 468.63 505.78 471.57
  Q 492.55 474.18 484.84 486.37
  Q 484.65 486.68 484.99 486.57
  Q 500.85 481.63 517.44 481.96
  Z"
/>
<path fill="#262a33" d="
  M 407.19 501.56
  C 396.75 491.91 392.11 480.86 393.68 466.61
  C 397.07 435.93 433.41 419.46 458.80 436.94
  C 468.38 443.54 474.02 453.50 475.42 465.16
  C 479.86 502.06 437.09 529.24 407.19 501.56
  Z
  M 448.7846 462.9161
  A 10.97 10.34 3.9 0 0 438.5433 451.8539
  A 10.97 10.34 3.9 0 0 426.8954 461.4239
  A 10.97 10.34 3.9 0 0 437.1367 472.4861
  A 10.97 10.34 3.9 0 0 448.7846 462.9161
  Z"
/>
<path fill="#262a33" d="
  M 607.7588 508.2624
  A 41.54 41.02 63.0 0 1 552.3509 489.8727
  A 41.54 41.02 63.0 0 1 570.0412 434.2376
  A 41.54 41.02 63.0 0 1 625.4491 452.6273
  A 41.54 41.02 63.0 0 1 607.7588 508.2624
  Z
  M 596.58 462.57
  A 10.79 10.79 0.0 0 0 585.79 451.78
  A 10.79 10.79 0.0 0 0 575.00 462.57
  A 10.79 10.79 0.0 0 0 585.79 473.36
  A 10.79 10.79 0.0 0 0 596.58 462.57
  Z"
/>
<ellipse fill="#fdfdfd" cx="0.00" cy="0.00" transform="translate(437.84,462.17) rotate(3.9)" rx="10.97" ry="10.34"/>
<circle fill="#fdfdfd" cx="585.79" cy="462.57" r="10.79"/>
<path fill="#262a33" d="
  M 517.44 481.96
  Q 500.85 481.63 484.99 486.57
  Q 484.65 486.68 484.84 486.37
  Q 492.55 474.18 505.78 471.57
  C 520.66 468.63 532.87 475.70 541.37 487.71
  A 0.11 0.10 -3.2 0 1 541.23 487.86
  Q 530.05 482.21 517.44 481.96
  Z"
/>
<path fill="#fdfdfd" d="
  M 383.56 688.68
  L 381.20 681.34
  C 408.71 701.06 445.67 698.22 466.99 671.78
  Q 478.86 657.06 482.46 638.68
  Q 483.78 631.92 483.77 618.77
  Q 483.74 591.54 483.75 564.34
  A 1.01 1.00 -15.0 0 1 484.26 563.47
  Q 492.18 558.88 498.51 552.29
  Q 499.00 551.78 499.00 552.49
  Q 498.99 586.90 499.02 621.28
  Q 499.04 632.87 497.73 639.65
  Q 494.01 659.00 482.38 675.36
  C 462.96 702.67 428.11 713.86 397.30 700.25
  C 391.95 697.88 385.78 693.99 383.56 688.68
  Z"
/>
<path fill="#fdfdfd" d="
  M 644.06 680.30
  L 638.02 691.69
  Q 634.31 696.05 630.20 698.25
  C 600.32 714.20 564.43 705.35 544.17 678.56
  Q 524.62 652.73 524.61 620.31
  Q 524.60 586.37 524.85 552.43
  Q 524.85 551.86 525.29 552.22
  L 539.43 563.72
  Q 539.84 564.05 539.97 564.56
  C 540.60 566.89 539.92 569.45 539.94 571.20
  Q 540.14 594.48 540.20 617.76
  Q 540.24 631.59 541.38 637.68
  C 548.00 673.04 577.86 699.60 615.01 693.28
  Q 631.50 690.47 644.06 680.30
  Z"
/>
<path fill="#fdfdfd" d="
  M 443.71 621.98
  Q 443.77 602.41 443.75 582.75
  A 0.72 0.71 84.0 0 1 444.31 582.05
  Q 451.49 580.50 458.11 577.32
  Q 458.72 577.02 458.72 577.70
  Q 458.80 601.02 458.77 624.24
  C 458.74 647.28 444.54 667.99 420.45 669.79
  Q 419.97 669.83 420.32 669.50
  C 434.31 656.36 443.65 641.78 443.71 621.98
  Z"
/>
<path fill="#fdfdfd" d="
  M 604.03 669.47
  C 578.22 670.71 565.56 644.62 564.84 622.68
  Q 564.42 609.57 564.95 577.93
  Q 564.95 577.43 565.43 577.59
  L 578.57 582.13
  Q 579.51 582.45 579.51 583.45
  Q 579.54 599.73 579.19 616.74
  C 578.87 632.56 583.30 648.02 593.79 659.45
  Q 596.14 662.00 604.21 668.95
  Q 604.77 669.44 604.03 669.47
  Z"
/>
</svg>
